HIERARCHY
ROOT hip
{
  OFFSET 0 0 0
  CHANNELS 6 Xposition Yposition Zposition Zrotation Yrotation Xrotation
  JOINT abdomen
  {
    OFFSET 0 20.6881 -0.73152
    CHANNELS 3 Zrotation Xrotation Yrotation
    JOINT chest
    {
      OFFSET 0 11.7043 -0.48768
      CHANNELS 3 Zrotation Xrotation Yrotation
      JOINT neck
      {
        OFFSET 0 22.1894 -2.19456
        CHANNELS 3 Zrotation Xrotation Yrotation
        JOINT head
        {
          OFFSET -0.24384 7.07133 1.2192
          CHANNELS 3 Zrotation Xrotation Yrotation
          JOINT leftEye
          {
            OFFSET 4.14528 8.04674 8.04672
            CHANNELS 3 Zrotation Xrotation Yrotation
            End Site
            {
              OFFSET 1 0 0
            }
          }
          JOINT rightEye
          {
            OFFSET -3.6576 8.04674 8.04672
            CHANNELS 3 Zrotation Xrotation Yrotation
            End Site
            {
              OFFSET 1 0 0
            }
          }
        }
      }
      JOINT rCollar
      {
        OFFSET -2.68224 19.2634 -4.8768
        CHANNELS 3 Zrotation Xrotation Yrotation
        JOINT rShldr
        {
          OFFSET -8.77824 -1.95073 1.46304
          CHANNELS 3 Zrotation Xrotation Yrotation
          JOINT rForeArm
          {
            OFFSET -28.1742 -1.7115 0.48768
            CHANNELS 3 Zrotation Xrotation Yrotation
            JOINT rHand
            {
              OFFSET -22.5879 0.773209 7.07136
              CHANNELS 3 Zrotation Xrotation Yrotation
              JOINT rThumb1
              {
                OFFSET -1.2192 -0.487915 3.41376
                CHANNELS 3 Zrotation Xrotation Yrotation
                JOINT rThumb2
                {
                  OFFSET -3.37035 -0.52449 3.41376
                  CHANNELS 3 Zrotation Xrotation Yrotation
                  End Site
                  {
                    OFFSET -1.78271 -1.18214 1.43049
                  }
                }
              }
              JOINT rIndex1
              {
                OFFSET -7.75947 0.938293 5.60832
                CHANNELS 3 Zrotation Xrotation Yrotation
                JOINT rIndex2
                {
                  OFFSET -2.54057 -0.884171 1.56538
                  CHANNELS 3 Zrotation Xrotation Yrotation
                  End Site
                  {
                    OFFSET -1.62519 -0.234802 1.16502
                  }
                }
              }
              JOINT rMid1
              {
                OFFSET -8.24714 1.18213 3.41376
                CHANNELS 3 Zrotation Xrotation Yrotation
                JOINT rMid2
                {
                  OFFSET -3.10165 -0.590103 1.0647
                  CHANNELS 3 Zrotation Xrotation Yrotation
                  End Site
                  {
                    OFFSET -2.48547 -0.328903 0.83742
                  }
                }
              }
              JOINT rRing1
              {
                OFFSET -8.82822 0.546677 1.51678
                CHANNELS 3 Zrotation Xrotation Yrotation
                JOINT rRing2
                {
                  OFFSET -2.60934 -0.819778 -0.0198488
                  CHANNELS 3 Zrotation Xrotation Yrotation
                  End Site
                  {
                    OFFSET -2.33842 -0.294052 0.168128
                  }
                }
              }
              JOINT rPinky1
              {
                OFFSET -8.27202 -0.0477905 -0.4584
                CHANNELS 3 Zrotation Xrotation Yrotation
                JOINT rPinky2
                {
                  OFFSET -1.82734 -0.647385 -0.700984
                  CHANNELS 3 Zrotation Xrotation Yrotation
                  End Site
                  {
                    OFFSET -1.69225 -0.51767 -0.607171
                  }
                }
              }
            }
          }
        }
      }
      JOINT lCollar
      {
        OFFSET 2.68224 19.2634 -4.8768
        CHANNELS 3 Zrotation Xrotation Yrotation
        JOINT lShldr
        {
          OFFSET 8.77824 -1.95073 1.46304
          CHANNELS 3 Zrotation Xrotation Yrotation
          JOINT lForeArm
          {
            OFFSET 28.1742 -1.7115 0.48768
            CHANNELS 3 Zrotation Xrotation Yrotation
            JOINT lHand
            {
              OFFSET 22.5879 0.773209 7.07136
              CHANNELS 3 Zrotation Xrotation Yrotation
              JOINT lThumb1
              {
                OFFSET 1.2192 -0.487915 3.41376
                CHANNELS 3 Zrotation Xrotation Yrotation
                JOINT lThumb2
                {
                  OFFSET 3.37035 -0.52449 3.41376
                  CHANNELS 3 Zrotation Xrotation Yrotation
                  End Site
                  {
                    OFFSET 1.78271 -1.18214 1.43049
                  }
                }
              }
              JOINT lIndex1
              {
                OFFSET 7.75947 0.938293 5.60832
                CHANNELS 3 Zrotation Xrotation Yrotation
                JOINT lIndex2
                {
                  OFFSET 2.54057 -0.884171 1.56538
                  CHANNELS 3 Zrotation Xrotation Yrotation
                  End Site
                  {
                    OFFSET 1.62519 -0.234802 1.16502
                  }
                }
              }
              JOINT lMid1
              {
                OFFSET 8.24714 1.18213 3.41376
                CHANNELS 3 Zrotation Xrotation Yrotation
                JOINT lMid2
                {
                  OFFSET 3.10165 -0.590103 1.0647
                  CHANNELS 3 Zrotation Xrotation Yrotation
                  End Site
                  {
                    OFFSET 2.48547 -0.328903 0.83742
                  }
                }
              }
              JOINT lRing1
              {
                OFFSET 8.82822 0.546677 1.51678
                CHANNELS 3 Zrotation Xrotation Yrotation
                JOINT lRing2
                {
                  OFFSET 2.60934 -0.819778 -0.0198488
                  CHANNELS 3 Zrotation Xrotation Yrotation
                  End Site
                  {
                    OFFSET 2.33842 -0.294052 0.168128
                  }
                }
              }
              JOINT lPinky1
              {
                OFFSET 8.27202 -0.0477905 -0.4584
                CHANNELS 3 Zrotation Xrotation Yrotation
                JOINT lPinky2
                {
                  OFFSET 1.82734 -0.647385 -0.700984
                  CHANNELS 3 Zrotation Xrotation Yrotation
                  End Site
                  {
                    OFFSET 1.69225 -0.51767 -0.607171
                  }
                }
              }
            }
          }
        }
      }
    }
  }
  JOINT rButtock
  {
    OFFSET -8.77824 4.35084 1.2192
    CHANNELS 3 Zrotation Xrotation Yrotation
    JOINT rThigh
    {
      OFFSET 0 -1.70687 -2.19456
      CHANNELS 3 Zrotation Xrotation Yrotation
      JOINT rShin
      {
        OFFSET 0 -36.8199 0.73152
        CHANNELS 3 Zrotation Xrotation Yrotation
        JOINT rFoot
        {
          OFFSET 0.73152 -45.1104 -5.12064
          CHANNELS 3 Zrotation Xrotation Yrotation
          End Site
          {
            OFFSET -1.1221 -3.69964 12.103
          }
        }
      }
    }
  }
  JOINT lButtock
  {
    OFFSET 8.77824 4.35084 1.2192
    CHANNELS 3 Zrotation Xrotation Yrotation
    JOINT lThigh
    {
      OFFSET 0 -1.70687 -2.19456
      CHANNELS 3 Zrotation Xrotation Yrotation
      JOINT lShin
      {
        OFFSET 0 -36.8199 0.73152
        CHANNELS 3 Zrotation Xrotation Yrotation
        JOINT lFoot
        {
          OFFSET -0.73152 -45.1104 -5.12064
          CHANNELS 3 Zrotation Xrotation Yrotation
          End Site
          {
            OFFSET 1.1221 -3.69964 12.103
          }
        }
      }
    }
  }
}
MOTION
Frames:	7
Frame Time:	0.00833333
-0.279603 84.8083 4.61659 0.0 0.0 0.0 -0.311447 -0.00212756 -0.00892051 -0.0860052 -0.00337424 -0.0149009 -4.91746e-15 -1.59028e-15 -2.79541e-17 -1.47629e-14 3.18055e-15 -7.76503e-17 -0.0 0.0 0.0 -0.0 0.0 0.0 -2.38681e-15 2.32951e-18 2.98177e-16 -4.97426e-14 1.55301e-16 1.98785e-16 -8.87375e-13 2.68757e-13 3.18055e-15 -1.01612e-11 -2.5514e-13 -8.90555e-14 -2.39711e-11 2.43359e-14 -1.55847e-13 -4.14057e-11 3.81667e-14 -2.65576e-13 -2.39659e-11 2.62396e-14 -1.62208e-13 7.73091 5.47488 0.417314 -2.39713e-11 2.47487e-14 -1.46306e-13 2.90554 0.965183 0.102902 -2.39612e-11 2.50469e-14 -1.49486e-13 10.2786 0.731801 0.0259123 -2.39758e-11 2.46493e-14 -1.39944e-13 2.22167 -0.733487 -0.20892 -2.58297e-15 2.13538e-18 -2.98177e-16 -5.24583e-14 4.47265e-16 -9.93923e-16 -8.87027e-13 -2.62793e-13 -1.90833e-14 -1.0167e-11 2.78696e-13 -3.49861e-14 -2.39766e-11 2.92359e-14 -1.43125e-13 -4.14005e-11 5.08889e-14 -2.52059e-13 -2.39822e-11 3.10104e-14 -1.33583e-13 -7.73091 5.47488 -0.417314 -2.39764e-11 2.96189e-14 -1.39944e-13 -2.90554 0.965183 -0.102902 -2.39818e-11 2.92213e-14 -1.4551e-13 -10.2786 0.731801 -0.0259123 -2.39726e-11 2.90226e-14 -1.59028e-13 -2.22167 -0.733487 0.20892 -2.03217e-16 0.0 -3.88251e-19 0.236649 -2.68365 -0.0295307 -0.00690327 -0.690852 -0.0603014 -0.472163 3.37446 0.121843 2.03217e-16 0.0 3.88251e-19 -0.711729 -3.90529 0.0594129 0.00342963 1.52199 0.0272274 0.477242 2.38331 -0.10252
-1.37919 83.4598 2.58807 -4.6138 -2.1793 9.7129 0.936631 -0.687547 0.219688 1.59353 -0.620567 0.0811644 1.17515 2.27706 -0.179098 -2.5106 -7.42581 -1.11231 -0.0 0.0 0.0 -0.0 0.0 0.0 -4.36058e-14 -4.65147e-14 1.10124e-14 16.1281 -2.12062 -3.00361 -11.3262 -8.2285 13.0915 0.109328 7.34925 1.00249 -1.54362e-10 2.10973e-10 9.55522e-11 -2.65539e-10 3.62068e-10 1.67842e-10 -1.54358e-10 2.10976e-10 9.55453e-11 7.73091 5.47488 0.417314 -1.54363e-10 2.10974e-10 9.55604e-11 2.90554 0.965183 0.102902 -1.54353e-10 2.10974e-10 9.55578e-11 10.2786 0.731801 0.0259123 -1.54366e-10 2.10974e-10 9.55669e-11 2.22167 -0.733487 -0.20892 -4.37614e-14 -4.65133e-14 1.04999e-14 -11.872 31.3728 -0.329427 26.0823 -23.7874 -14.078 -0.14293 -8.40336 1.13566 -2.86062e-11 -9.8593e-12 -3.71838e-11 -4.81631e-11 -1.7679e-11 -6.54294e-11 -2.86124e-11 -9.85785e-12 -3.71757e-11 -7.73091 5.47488 -0.417314 -2.86062e-11 -9.8581e-12 -3.71814e-11 -2.90554 0.965183 -0.102902 -2.86135e-11 -9.85842e-12 -3.71864e-11 -10.2786 0.731801 -0.0259123 -2.86029e-11 -9.85908e-12 -3.71989e-11 -2.22167 -0.733487 0.20892 -2.03217e-16 0.0 -3.88251e-19 1.44404 -7.95844 2.39053 -0.00369756 5.06857 0.0185263 -0.569759 1.91662 -2.47846 2.03217e-16 0.0 3.88251e-19 2.11084 -9.38412 -0.152618 0.00351743 8.94835 -0.0869852 0.612752 -0.267067 1.55999
-1.33847 83.4076 2.5885 -4.6367 -2.1487 9.7066 2.26385 -1.41344 0.464874 3.37226 -1.2705 0.183589 2.43265 4.69105 -0.370892 -5.48929 -15.2744 -2.3553 -0.0 0.0 0.0 -0.0 0.0 0.0 -9.31592e-14 -9.89955e-14 2.2003e-14 32.9843 -4.33551 -6.18831 -19.2365 -15.4821 27.7395 -0.0641065 15.1376 2.12237 -3.08904e-10 4.58417e-10 2.05066e-10 -5.31226e-10 7.86792e-10 3.6025e-10 -3.08902e-10 4.5842e-10 2.05058e-10 7.73091 5.47488 0.417314 -3.08906e-10 4.58419e-10 2.05073e-10 2.90554 0.965183 0.102902 -3.08895e-10 4.58419e-10 2.05071e-10 10.2786 0.731801 0.0259123 -3.08907e-10 4.58418e-10 2.05079e-10 2.22167 -0.733487 -0.20892 -9.32697e-14 -9.8992e-14 2.15806e-14 -23.5868 64.5412 -1.3371 37.3409 -43.5188 -37.9048 0.0836207 -17.2689 2.41942 -3.86607e-11 -2.03137e-11 -8.01937e-11 -6.40897e-11 -3.65476e-11 -1.41218e-10 -3.86675e-11 -2.03127e-11 -8.01871e-11 -7.73091 5.47488 -0.417314 -3.86611e-11 -2.03117e-11 -8.01921e-11 -2.90554 0.965183 -0.102902 -3.86703e-11 -2.03119e-11 -8.01967e-11 -10.2786 0.731801 -0.0259123 -3.86581e-11 -2.03131e-11 -8.0208e-11 -2.22167 -0.733487 0.20892 -2.03217e-16 0.0 -3.88251e-19 3.21941 -13.494 5.05233 -0.0177651 11.1489 0.103506 -0.816777 0.382168 -5.23413 2.03217e-16 0.0 3.88251e-19 5.04843 -15.1702 -0.395161 0.0370345 16.7898 -0.214561 0.924235 -3.05997 3.33119
-1.30789 83.366 2.6013 -4.6989 -2.1103 9.6438 3.4492 -2.05826 0.677295 4.9588 -1.85493 0.273424 3.56842 6.8309 -0.540707 -8.45533 -22.2425 -3.57527 -0.0 0.0 0.0 -0.0 0.0 0.0 -1.26044e-13 -1.39549e-13 3.24407e-14 47.717 -6.29176 -9.05968 -23.1524 -19.4624 41.7199 -0.494756 22.0196 3.2177 -4.15144e-10 6.32871e-10 2.86968e-10 -7.13805e-10 1.08613e-09 5.04058e-10 -4.15144e-10 6.32874e-10 2.8696e-10 7.73091 5.47488 0.417314 -4.15146e-10 6.32873e-10 2.86974e-10 2.90554 0.965183 0.102902 -4.15136e-10 6.32873e-10 2.86972e-10 10.2786 0.731801 0.0259123 -4.15147e-10 6.32871e-10 2.8698e-10 2.22167 -0.733487 -0.20892 -1.26118e-13 -1.39544e-13 3.2096e-14 132.314 85.7951 -168.414 31.2417 -48.4879 -70.2083 0.658989 -25.1683 3.72441 -3.78654e-11 -2.96364e-11 -1.11265e-10 -6.16885e-11 -5.31389e-11 -1.95784e-10 -3.78728e-11 -2.96356e-11 -1.1126e-10 -7.73091 5.47488 -0.417314 -3.7866e-11 -2.96336e-11 -1.11264e-10 -2.90554 0.965183 -0.102902 -3.7877e-11 -2.96337e-11 -1.11268e-10 -10.2786 0.731801 -0.0259123 -3.78634e-11 -2.96353e-11 -1.11279e-10 -2.22167 -0.733487 0.20892 -2.03217e-16 0.0 -3.88251e-19 5.25508 -18.3788 7.54857 -0.0462424 16.5873 0.183596 -1.16084 -0.984794 -7.67562 2.03217e-16 0.0 3.88251e-19 7.6273 -20.3408 -0.608205 0.0993661 23.8007 -0.341236 1.34611 -5.54784 4.90784
-1.28612 83.3259 2.60723 -4.8049 -2.074 9.613 4.26786 -2.50052 0.807418 6.06047 -2.27563 0.331658 4.36869 8.28567 -0.652208 -10.7119 -27.043 -4.50919 -0.0 0.0 0.0 -0.0 0.0 0.0 -1.17255e-13 -1.50283e-13 4.14963e-14 57.6064 -7.6671 -11.1022 -24.6316 -20.3268 51.6741 -0.959385 26.6635 4.04687 -4.00629e-10 6.24846e-10 2.99844e-10 -6.88615e-10 1.072e-09 5.26369e-10 -4.00629e-10 6.2485e-10 2.99834e-10 7.73091 5.47488 0.417314 -4.00631e-10 6.24848e-10 2.99847e-10 2.90554 0.965183 0.102902 -4.0062e-10 6.24849e-10 2.99846e-10 10.2786 0.731801 0.0259123 -4.00631e-10 6.24847e-10 2.99853e-10 2.22167 -0.733487 -0.20892 -1.17318e-13 -1.50279e-13 4.11981e-14 133.782 65.2916 -177.483 27.363 -42.9589 -89.4093 1.3139 -30.6918 4.78516 -9.94559e-12 -3.61295e-11 -1.1249e-10 -1.34677e-11 -6.40373e-11 -1.97292e-10 -9.95355e-12 -3.61287e-11 -1.12487e-10 -7.73091 5.47488 -0.417314 -9.94634e-12 -3.61261e-11 -1.1249e-10 -2.90554 0.965183 -0.102902 -9.95842e-12 -3.61262e-11 -1.12493e-10 -10.2786 0.731801 -0.0259123 -9.944e-12 -3.61279e-11 -1.12503e-10 -2.22167 -0.733487 0.20892 -2.03217e-16 0.0 -3.88251e-19 6.92767 -21.7592 9.34114 -0.0759994 20.4213 0.243951 -1.46823 -1.95207 -9.32923 2.03217e-16 0.0 3.88251e-19 9.41148 -23.9736 -0.716126 0.164446 28.7359 -0.441697 1.71445 -7.29433 5.97137
-1.2357 83.2881 2.60687 -4.8336 -2.0515 9.6111 4.56079 -2.6549 0.82318 6.48816 -2.46608 0.34608 4.6908 8.7807 -0.678559 -11.634 -28.8426 -4.8653 -0.0 0.0 0.0 -0.0 0.0 0.0 -3.38204e-14 -1.1409e-13 5.06517e-14 60.9481 -8.26053 -11.9463 -25.0457 -20.1733 55.4861 -1.15812 28.2081 4.34664 -1.26365e-10 2.29284e-10 2.07168e-10 -2.1595e-10 3.91016e-10 3.61664e-10 -1.26364e-10 2.29288e-10 2.07155e-10 7.73091 5.47488 0.417314 -1.26366e-10 2.29285e-10 2.07166e-10 2.90554 0.965183 0.102902 -1.26356e-10 2.29286e-10 2.07167e-10 10.2786 0.731801 0.0259123 -1.26368e-10 2.29285e-10 2.07172e-10 2.22167 -0.733487 -0.20892 -3.39123e-14 -1.14091e-13 5.03496e-14 131.375 57.3212 -177.836 27.3677 -39.4197 -94.6533 1.64776 -32.9399 5.26368 8.62589e-11 -2.65467e-11 -4.49526e-11 1.50428e-10 -4.54181e-11 -7.67828e-11 8.62503e-11 -2.65455e-11 -4.49528e-11 -7.73091 5.47488 -0.417314 8.62582e-11 -2.65429e-11 -4.49536e-11 -2.90554 0.965183 -0.102902 8.62455e-11 -2.6543e-11 -4.49553e-11 -10.2786 0.731801 -0.0259123 8.62601e-11 -2.65444e-11 -4.49644e-11 -2.22167 -0.733487 0.20892 -2.03217e-16 0.0 -3.88251e-19 7.6059 -23.1269 9.95045 -0.0907906 22.0204 0.270801 -1.60147 -2.38308 -9.8682 2.03217e-16 0.0 3.88251e-19 10.1348 -25.4566 -0.644703 0.196804 30.7732 -0.48662 1.86078 -8.0196 6.29487
-1.18779 83.2475 2.60261 -4.8841 -2.0238 9.6271 4.47761 -2.60389 0.75714 6.43365 -2.49211 0.329157 4.66839 8.59027 -0.64357 -11.5124 -28.5061 -4.75374 -0.0 0.0 0.0 -0.0 0.0 0.0 1.02157e-13 -4.46231e-14 5.97814e-14 59.6623 -8.31034 -11.9253 -24.9848 -20.1685 54.9967 -1.09136 27.5443 4.22296 3.29114e-10 -4.36802e-10 3.9523e-11 5.68882e-10 -7.55429e-10 6.41811e-11 3.29117e-10 -4.36799e-10 3.95063e-11 7.73091 5.47488 0.417314 3.29114e-10 -4.36802e-10 3.95154e-11 2.90554 0.965183 0.102902 3.29124e-10 -4.36802e-10 3.95174e-11 10.2786 0.731801 0.0259123 3.29111e-10 -4.36801e-10 3.95198e-11 2.22167 -0.733487 -0.20892 1.02007e-13 -4.46323e-14 5.94397e-14 131.867 58.3428 -177.676 27.3271 -39.8316 -94.1196 1.62762 -32.8581 5.243 2.29795e-10 -6.05785e-12 7.04157e-11 3.94495e-10 -6.74099e-12 1.28609e-10 2.29785e-10 -6.056e-12 7.04111e-11 -7.73091 5.47488 -0.417314 2.29794e-10 -6.05388e-12 7.04137e-11 -2.90554 0.965183 -0.102902 2.29781e-10 -6.05393e-12 7.04138e-11 -10.2786 0.731801 -0.0259123 2.29796e-10 -6.05486e-12 7.0405e-11 -2.22167 -0.733487 0.20892 -2.03217e-16 0.0 -3.88251e-19 7.45674 -23.0806 9.65693 -0.0904609 22.0228 0.27169 -1.58162 -2.43601 -9.6091 2.03217e-16 0.0 3.88251e-19 10.1076 -25.4036 -0.441354 0.195518 30.7405 -0.485487 1.81527 -8.01976 6.08304
